<svg data-name="Layer 1" xmlns="http://www.w3.org/2000/svg" viewBox="0 0 48 48"><path d="M22.08 15.37L16 16.53a.6.6 0 01-.7-.58v-4.61c0-1.95-2.63-2.39-2.63.29v4.1c0 1.17 1.17 2.29 3.12 3.66s6.78 4.73 6.78 9.75v8.77c0 2.54-1.37 7.61-6.49 9.36s-10.72 0-10.72-5.75v-8a.57.57 0 01.49-.57l5.8-1a.59.59 0 01.68.58v6.18c0 2.59 3 2.68 3-.19v-5.39c0-1-1.26-2.58-2.68-3.55s-7.26-4.93-7.26-9.51v-7c0-1.61 1.51-10.58 9.8-10.58s7.41 8.14 7.41 8.14v4.18a.59.59 0 01-.52.56z" fill="#fa0078"/><path d="M36.82 0C33.81.31 27 1.33 25.07 1.61a.57.57 0 00-.49.57l-.08 42.39a.58.58 0 00.68.58c2.05-.33 7.67-1.36 11.69-2.13 4.88-.92 5.8-6.87 5.8-10.28V6.51c0-4.73-2.34-6.92-5.85-6.51zm-2.24 33.23c0 1.43-.29 2.55-1.49 3a.59.59 0 01-.8-.55c0-4.35.29-24 .33-27.57a.58.58 0 01.63-.57c.68.07 1.67.49 1.67 2.31 0 2.8-.29 21.67-.34 23.38z" fill="#824a95"/></svg>