<svg id="Layer_1" data-name="Layer 1" xmlns="http://www.w3.org/2000/svg" viewBox="0 0 48 48"><defs><style>.cls-1{fill:#fa0078;}.cls-2{fill:#824a95;}</style></defs><title>autres</title><path class="cls-1" d="M22.08,15.37,16,16.53a.6.6,0,0,1-.7-.58V11.34c0-1.95-2.63-2.39-2.63.29v4.1c0,1.17,1.17,2.29,3.12,3.66s6.78,4.73,6.78,9.75v8.77c0,2.54-1.37,7.61-6.49,9.36s-10.72,0-10.72-5.75v-8a.57.57,0,0,1,.49-.57l5.8-1a.59.59,0,0,1,.68.58v6.18c0,2.59,3,2.68,3-.19V33.13c0-1-1.26-2.58-2.68-3.55s-7.26-4.93-7.26-9.51v-7c0-1.61,1.51-10.58,9.8-10.58s7.41,8.14,7.41,8.14l0,4.18A.59.59,0,0,1,22.08,15.37Z"/><path class="cls-2" d="M36.82,0C33.81.31,27,1.33,25.07,1.61a.57.57,0,0,0-.49.57L24.5,44.57a.58.58,0,0,0,.68.58c2.05-.33,7.67-1.36,11.69-2.13,4.88-.92,5.8-6.87,5.8-10.28V6.51C42.67,1.78,40.33-.41,36.82,0ZM34.58,33.23c0,1.43-.29,2.55-1.49,3a.59.59,0,0,1-.8-.55c0-4.35.29-24,.33-27.57a.58.58,0,0,1,.63-.57c.68.07,1.67.49,1.67,2.31C34.92,12.65,34.63,31.52,34.58,33.23Z"/></svg>